<?xml version="1.0" standalone="no"?>
<!DOCTYPE svg PUBLIC "-//W3C//DTD SVG 20010904//EN"
 "http://www.w3.org/TR/2001/REC-SVG-20010904/DTD/svg10.dtd">
<svg version="1.0" xmlns="http://www.w3.org/2000/svg"
 width="600.000000pt" height="1067.000000pt" viewBox="0 0 600.000000 1067.000000"
 preserveAspectRatio="xMidYMid meet">

<g transform="translate(0.000000,1067.000000) scale(0.100000,-0.100000)"
fill="#000000" stroke="none">
<path d="M0 5335 l0 -5335 3000 0 3000 0 0 5335 0 5335 -3000 0 -3000 0 0
-5335z m1490 3968 c0 -100 1 -105 18 -91 56 50 137 61 200 29 65 -33 73 -60
76 -244 2 -89 1 -168 -2 -174 -3 -9 -27 -13 -73 -13 l-69 0 0 143 c0 167 -7
187 -69 187 -67 0 -75 -19 -79 -186 l-3 -144 -70 0 -69 0 0 300 0 300 70 0 70
0 0 -107z m-309 -54 c51 -17 99 -57 115 -95 25 -60 22 -64 -55 -64 -59 0 -69
3 -74 19 -8 31 -54 56 -84 45 -44 -16 -67 -57 -67 -123 -1 -79 23 -115 82
-119 39 -3 44 0 62 31 19 32 26 36 73 39 79 6 88 1 72 -44 -20 -60 -41 -84
-91 -108 -126 -61 -274 -18 -325 94 -21 46 -25 131 -8 190 13 47 82 118 129
133 47 15 129 16 171 2z m994 -14 c64 -32 73 -62 77 -258 l3 -167 -68 0 c-58
0 -70 3 -74 18 -4 18 -7 17 -50 -5 -80 -40 -195 -22 -230 35 -34 57 -20 144
30 176 22 15 87 31 199 50 71 13 51 86 -23 86 -29 0 -69 -30 -69 -51 0 -12
-125 -8 -137 4 -9 10 31 80 58 100 38 27 83 36 169 34 51 -2 88 -9 115 -22z
m407 13 c46 -14 98 -68 98 -103 0 -24 -3 -25 -65 -25 -36 0 -65 4 -65 9 0 19
-32 41 -60 41 -41 0 -60 -10 -60 -31 0 -23 20 -33 95 -50 93 -19 141 -45 160
-86 32 -67 3 -141 -71 -178 -57 -29 -192 -28 -254 2 -49 24 -80 66 -80 107 0
25 2 26 64 26 60 0 66 -2 78 -27 7 -15 24 -30 38 -33 34 -9 86 6 95 27 10 27
-26 49 -102 63 -110 20 -162 58 -165 120 -3 74 21 112 87 135 49 17 154 19
207 3z m439 0 c87 -25 146 -107 151 -208 l3 -45 -140 -1 c-202 -3 -187 0 -180
-26 4 -13 19 -35 35 -49 25 -24 32 -26 71 -19 24 5 51 17 59 28 13 16 29 20
78 21 34 0 64 -3 67 -8 9 -16 -59 -95 -100 -116 -23 -11 -68 -21 -107 -23
-175 -10 -285 130 -237 302 14 50 83 123 134 141 49 17 115 19 166 3z m-17
-2811 c-5 -22 -15 -101 -17 -124 0 -7 -6 -13 -14 -13 -8 0 -13 13 -14 33 -2
67 3 92 21 108 11 9 16 20 12 24 -4 5 -2 5 5 1 6 -3 10 -16 7 -29z m-26 -177
c0 -20 -4 -30 -14 -30 -8 0 -14 -7 -14 -15 0 -9 6 -12 18 -8 16 6 16 5 0 -13
-13 -14 -14 -23 -6 -38 7 -13 7 -17 0 -12 -6 3 -13 -2 -16 -11 -3 -10 -4 -6
-2 10 2 15 0 30 -5 33 -4 2 -6 10 -4 17 2 7 9 31 15 55 13 49 27 55 28 12z
m-1020 -5 c-3 -3 -9 2 -12 12 -6 14 -5 15 5 6 7 -7 10 -15 7 -18z m1417 -4
c-2 -5 6 -18 20 -31 13 -12 21 -28 18 -36 -3 -8 0 -14 7 -14 6 0 8 -5 5 -10
-4 -6 -12 -7 -18 -3 -9 5 -9 3 0 -8 15 -19 6 -57 -20 -86 l-20 -23 24 0 c13 0
39 9 57 20 18 11 47 20 65 20 43 0 61 -40 41 -89 -7 -17 -13 -34 -13 -37 0 -2
-9 -16 -21 -31 -11 -14 -20 -40 -20 -58 0 -28 -3 -32 -19 -28 -14 3 -20 -1
-23 -15 -3 -19 -5 -20 -48 -5 -25 8 -47 18 -50 22 -9 11 -40 9 -40 -3 0 -6 7
-19 15 -29 7 -11 11 -25 8 -33 -4 -12 -8 -11 -20 3 -8 10 -11 12 -7 4 5 -10 3
-12 -7 -5 -25 15 -58 12 -52 -5 3 -12 2 -12 -7 2 -16 25 -20 55 -11 80 7 17 4
26 -14 39 -17 13 -25 14 -28 5 -2 -6 -2 16 0 50 4 57 2 63 -20 78 -45 29 -10
85 64 105 28 8 40 18 47 40 6 16 25 38 41 48 17 10 28 22 24 25 -3 4 -1 7 6 7
7 0 9 5 5 12 -4 7 -3 8 5 4 6 -4 9 -11 6 -15z m838 4 c-3 -9 -8 -14 -10 -11
-3 3 -2 9 2 15 9 16 15 13 8 -4z m-2310 -78 c-3 -4 -11 -3 -19 4 -11 9 -12 15
-2 26 10 13 13 12 19 -4 3 -10 4 -22 2 -26z m37 13 c5 0 11 8 13 18 3 9 4 5 3
-9 -2 -26 -42 -78 -60 -79 -6 0 -5 5 2 12 21 21 13 32 -8 13 -20 -18 -21 -18
-14 0 6 14 4 17 -9 12 -11 -4 -14 -2 -10 9 4 11 9 12 19 3 18 -15 44 5 45 35
1 17 2 17 6 4 2 -10 8 -18 13 -18z m2287 -12 c-3 -8 -6 -5 -6 6 -1 11 2 17 5
13 3 -3 4 -12 1 -19z m-1247 -8 c0 -5 -2 -10 -4 -10 -3 0 -8 5 -11 10 -3 6 -1
10 4 10 6 0 11 -4 11 -10z m-1033 -45 c0 -8 -4 -12 -9 -9 -5 3 -6 10 -3 15 9
13 12 11 12 -6z m-17 -25 c0 -5 -7 -6 -17 -3 -10 4 -14 2 -10 -4 4 -6 0 -14
-9 -17 -24 -9 -28 -7 -15 8 9 11 9 15 -1 18 -7 3 2 5 20 6 17 0 32 -3 32 -8z
m-73 -6 c-3 -3 -12 -4 -19 -1 -8 3 -5 6 6 6 11 1 17 -2 13 -5z m1148 -65 c3
-30 4 -76 4 -104 -1 -102 0 -148 6 -163 10 -28 14 -441 4 -448 -14 -8 -16 -5
-22 41 -3 22 -13 87 -22 145 -10 64 -13 122 -9 150 4 25 6 59 5 75 -1 17 2 48
7 70 5 22 5 54 0 70 -10 37 -12 210 -3 225 13 21 26 -5 30 -61z m-401 49 c-5
-8 0 -9 15 -5 13 3 20 3 17 0 -3 -3 2 -12 11 -18 10 -7 17 -26 18 -41 0 -18 5
-28 13 -26 6 1 12 -2 12 -8 0 -5 -5 -10 -11 -10 -8 0 -7 -6 2 -17 8 -9 13 -18
12 -20 -2 -1 -3 -8 -3 -14 0 -8 4 -9 13 0 8 6 16 9 18 7 2 -3 4 9 4 26 0 59
50 64 60 6 8 -41 34 -98 46 -98 8 0 7 -6 -2 -16 -14 -17 -20 -36 -23 -71 -1
-15 -4 -18 -13 -12 -7 7 -14 6 -18 -1 -5 -8 -10 -8 -20 0 -9 8 -14 8 -17 0 -3
-11 -88 60 -88 73 0 16 13 36 21 31 5 -3 9 -1 9 4 0 6 -7 12 -15 16 -8 3 -15
0 -15 -6 0 -7 -7 -3 -16 8 -8 10 -12 12 -8 4 7 -13 6 -13 -12 0 -10 8 -22 20
-26 25 -5 6 -8 4 -10 -5 -1 -8 -4 21 -7 65 -5 72 -4 82 14 97 24 21 29 22 19
6z m1656 -188 c0 -5 -4 -10 -9 -10 -6 0 -13 5 -16 10 -3 6 1 10 9 10 9 0 16
-4 16 -10z m-11 -19 c19 -12 22 -38 6 -45 -9 -3 -12 2 -10 15 3 13 -3 23 -18
29 -13 5 -16 9 -7 9 8 0 21 -3 29 -8z m-559 -62 c0 -10 -4 -19 -10 -19 -5 0
-10 -4 -10 -10 0 -5 8 -10 17 -10 11 0 14 -3 7 -10 -16 -16 -82 0 -87 21 -3
11 -1 16 4 13 5 -3 12 2 15 11 7 17 44 36 57 28 4 -2 7 -13 7 -24z m-1850 1
c0 -5 -7 -7 -15 -4 -8 4 -15 8 -15 10 0 2 7 4 15 4 8 0 15 -4 15 -10z m2425
-45 c7 -29 7 -29 -8 -10 -9 11 -17 29 -17 40 0 27 17 7 25 -30z m-980 5 c3 -5
1 -10 -4 -10 -6 0 -11 5 -11 10 0 6 2 10 4 10 3 0 8 -4 11 -10z m-785 -65 c0
-5 -5 -3 -10 5 -5 8 -10 10 -10 4 0 -6 7 -17 15 -24 12 -10 15 -10 15 0 0 8 3
11 6 7 3 -3 -1 -16 -10 -29 -11 -15 -16 -17 -16 -8 -1 11 -5 9 -18 -6 -25 -30
-48 -17 -47 26 0 20 5 36 13 36 6 1 15 3 20 4 4 1 10 2 15 1 4 0 7 5 7 12 0 8
4 7 10 -3 5 -8 10 -19 10 -25z m1750 31 c0 -2 -9 -6 -20 -9 -11 -3 -18 -1 -14
4 5 9 34 13 34 5z m-1844 -57 c1 -25 -1 -28 -8 -15 -5 10 -7 24 -4 32 8 21 11
17 12 -17z m1130 -24 c50 -13 101 -29 113 -37 29 -18 26 -48 -6 -76 -16 -13
-22 -21 -15 -17 7 4 12 0 12 -10 0 -9 -5 -13 -11 -9 -8 4 -8 0 0 -15 10 -17 9
-22 -3 -27 -8 -3 -18 -14 -21 -24 -5 -15 -11 -17 -29 -10 -16 6 -23 5 -23 -5
0 -7 6 -11 14 -8 7 3 13 -1 14 -8 0 -8 2 -24 3 -36 2 -15 -3 -23 -13 -23 -13
0 -13 -2 -2 -9 11 -7 9 -11 -8 -20 -11 -7 -21 -9 -21 -5 0 3 -11 -1 -24 -10
-17 -11 -27 -12 -32 -5 -4 6 0 15 7 20 12 7 12 9 0 9 -11 0 -11 3 -1 16 8 8 9
14 4 12 -5 -1 -20 5 -34 14 -30 19 -88 30 -95 17 -9 -14 -54 -7 -48 8 3 7 10
13 15 13 7 0 7 4 1 13 -14 18 -33 90 -33 126 0 58 20 118 43 128 28 13 81 7
193 -22z m671 -37 c2 -17 0 -19 -7 -8 -5 8 -6 18 -4 22 8 12 10 10 11 -14z
m40 7 c0 -6 -6 -12 -12 -12 -6 0 -12 6 -12 12 0 6 6 12 12 12 6 0 12 -6 12
-12z m-1427 -45 c29 -15 42 -46 35 -83 -5 -26 -1 -37 23 -62 24 -25 30 -39 29
-73 -1 -31 -5 -41 -14 -38 -7 3 -13 1 -13 -4 0 -6 5 -10 10 -10 6 0 10 -7 10
-16 0 -8 -4 -13 -9 -9 -11 6 -71 -49 -71 -65 0 -13 -27 -13 -35 0 -3 6 -15 10
-25 10 -10 0 -26 9 -34 21 -8 12 -18 19 -23 16 -12 -7 -10 76 2 89 7 8 14 9
22 2 8 -6 19 -6 31 1 11 6 22 7 26 3 4 -3 4 1 1 9 -4 11 -25 18 -68 22 -34 4
-76 12 -94 19 -28 10 -35 10 -52 -6 -11 -10 -18 -22 -16 -26 2 -4 -4 -15 -15
-25 -11 -10 -20 -14 -20 -9 -1 5 -7 -2 -14 -16 -8 -14 -12 -28 -10 -31 2 -4
-8 -10 -21 -13 -14 -4 -23 -10 -20 -15 3 -5 -9 -24 -27 -42 -26 -28 -33 -31
-36 -17 -2 10 14 34 37 57 37 37 54 73 34 70 -33 -5 -42 3 -40 35 1 19 5 32
10 29 4 -2 11 7 17 21 8 22 16 26 48 26 40 0 42 4 45 82 0 22 7 30 34 39 19 6
37 9 40 6 2 -3 19 1 36 9 35 15 134 12 167 -6z m356 -124 c12 -12 23 -28 26
-36 2 -8 15 -15 29 -15 16 0 25 -7 27 -20 3 -11 9 -23 15 -27 6 -4 11 -23 10
-42 -1 -20 2 -38 7 -41 4 -2 6 -19 3 -37 -2 -18 -5 -41 -6 -50 -1 -10 -5 -18
-11 -18 -5 0 -1 -10 10 -22 19 -23 19 -23 -2 -5 -14 12 -30 15 -51 11 -33 -7
-75 23 -87 63 -4 11 -13 24 -21 26 -10 4 -13 27 -13 90 0 47 -5 94 -12 107 -6
12 -9 27 -7 35 8 18 58 7 83 -19z m-755 -13 c13 -16 12 -17 -3 -4 -10 7 -18
15 -18 17 0 8 8 3 21 -13z m259 -77 c0 -3 -4 -8 -10 -11 -5 -3 -10 -1 -10 4 0
6 5 11 10 11 6 0 10 -2 10 -4z m739 -121 c24 -6 36 -16 43 -36 5 -16 15 -27
21 -26 7 1 11 -4 9 -12 -1 -7 2 -18 7 -25 6 -7 10 -21 9 -31 0 -11 0 -24 2
-30 5 -19 0 -36 -9 -31 -8 5 -64 -59 -67 -76 -1 -5 -2 -12 -3 -17 -2 -12 -40
-21 -47 -10 -3 5 -18 9 -35 9 -22 0 -29 5 -29 20 0 11 -6 29 -12 40 -10 16
-10 22 4 32 24 19 40 65 23 65 -8 0 -12 -4 -10 -8 3 -4 -5 -4 -17 -1 -19 5
-20 7 -5 10 18 4 22 14 10 26 -4 3 -8 13 -9 22 -2 13 0 13 14 2 9 -7 14 -8 10
-4 -4 5 -3 15 3 23 6 7 8 13 5 13 -4 0 1 13 10 29 9 16 22 28 28 26 6 -1 26
-6 45 -10z m-887 -57 c-6 -6 -7 0 -4 19 5 21 7 23 10 9 2 -10 0 -22 -6 -28z
m474 1 c2 -43 -59 -113 -80 -91 -6 5 29 75 49 99 13 15 30 11 31 -8z m-416
-56 c0 -7 -9 -22 -19 -32 -10 -10 -22 -29 -26 -41 -6 -18 -9 -20 -16 -9 -6 10
-9 11 -9 2 0 -7 -6 -13 -14 -13 -19 0 -29 85 -13 111 9 15 19 18 41 13 22 -5
27 -3 21 7 -5 8 1 5 13 -5 12 -11 22 -25 22 -33z m250 -53 c0 -5 -9 -10 -21
-10 -11 0 -18 -4 -15 -8 2 -4 -7 -9 -20 -10 -29 -2 -23 15 10 28 29 12 46 12
46 0z m707 -225 c0 -14 -25 -30 -34 -21 -3 3 24 36 31 36 1 0 3 -7 3 -15z
m-507 -4480 c12 -14 5 -55 -10 -55 -4 0 -10 7 -14 15 -3 8 -10 15 -16 15 -5 0
-10 -7 -10 -15 0 -8 -9 -15 -20 -15 -20 0 -20 -1 -3 -24 l18 -24 23 21 c20 19
24 19 37 6 14 -14 11 -19 -25 -48 l-40 -32 -29 33 c-68 78 -82 98 -76 108 11
17 34 11 46 -12 l12 -22 8 22 c5 12 17 22 28 22 11 0 23 5 26 10 9 14 31 12
45 -5z"/>
<path d="M2036 8996 c-60 -14 -85 -44 -68 -81 9 -20 19 -25 49 -25 53 1 83 27
90 78 6 47 8 47 -71 28z"/>
<path d="M2883 9138 c-46 -52 -41 -58 57 -58 100 0 111 9 65 55 -32 33 -93 34
-122 3z"/>
<path d="M2971 6414 c0 -11 3 -14 6 -6 3 7 2 16 -1 19 -3 4 -6 -2 -5 -13z"/>
<path d="M1925 6170 c-3 -5 -2 -10 4 -10 5 0 13 5 16 10 3 6 2 10 -4 10 -5 0
-13 -4 -16 -10z"/>
<path d="M2657 5916 c-3 -8 0 -16 7 -19 6 -3 13 4 13 14 2 22 -12 25 -20 5z"/>
<path d="M3015 360 c3 -5 8 -10 11 -10 2 0 4 5 4 10 0 6 -5 10 -11 10 -5 0 -7
-4 -4 -10z"/>
<path d="M2957 354 c-8 -8 1 -24 14 -24 5 0 9 7 9 15 0 15 -12 20 -23 9z"/>
</g>
</svg>
